Jump_normalized_Precision Landing14_filtered_grf
version=1
nRows=12
nColumns=37
inDegrees=yes
endheader
time		1_ground_force_vx		1_ground_force_vy		1_ground_force_vz		1_ground_force_px		1_ground_force_py		1_ground_force_pz		1_ground_torque_x		1_ground_torque_y		1_ground_torque_z		2_ground_force_vx		2_ground_force_vy		2_ground_force_vz		2_ground_force_px		2_ground_force_py		2_ground_force_pz		2_ground_torque_x		2_ground_torque_y		2_ground_torque_z		3_ground_force_vx		3_ground_force_vy		3_ground_force_vz		3_ground_force_px		3_ground_force_py		3_ground_force_pz		3_ground_torque_x		3_ground_torque_y		3_ground_torque_z		4_ground_force_vx		4_ground_force_vy		4_ground_force_vz		4_ground_force_px		4_ground_force_py		4_ground_force_pz		4_ground_torque_x		4_ground_torque_y		4_ground_torque_z		
0.067000		0.000000		-0.000000		-0.000000		0.107751		0.000000		0.289496		-0.000000		-0.000000		0.000000		-0.000000		-0.000000		-0.000000		-0.189234		0.000000		0.278759		-0.000000		0.000000		-0.000000		-27.049988		587.719114		113.063741		0.352973		1.253898		1.891552		1.231609		-26.759342		-5.147886		10.390421		612.274679		101.092539		-0.290227		1.264056		1.902643		0.550165		32.419484		5.352774		
0.070737		0.000000		0.000000		-0.000000		0.107751		0.000000		0.289496		0.000000		-0.000000		-0.000000		-0.000000		0.000000		-0.000000		-0.189234		0.000000		0.278759		-0.000000		0.000000		0.000000		-27.498849		587.197056		112.187331		0.352967		1.253907		1.891620		1.251954		-26.733614		-5.107609		11.049872		611.996570		99.367173		-0.290214		1.264064		1.902675		0.586204		32.466865		5.271500		
0.074475		0.000000		0.000000		0.000000		0.107751		0.000000		0.289496		0.000000		0.000000		-0.000000		0.000000		0.000000		0.000000		-0.189234		0.000000		0.278759		0.000000		-0.000000		0.000000		-27.887856		587.038914		111.469901		0.352958		1.253925		1.891694		1.269761		-26.728452		-5.075333		11.955466		610.767045		97.191180		-0.290202		1.264068		1.902704		0.635507		32.466046		5.166312		
0.078212		-0.000000		0.000000		0.000000		0.107751		0.000000		0.289496		0.000000		0.000000		-0.000000		0.000000		0.000000		0.000000		-0.189234		0.000000		0.278759		0.000000		-0.000000		0.000000		-28.218996		587.266515		110.992378		0.352981		1.253943		1.891749		1.285117		-26.744610		-5.054686		13.007886		608.604055		94.545673		-0.290188		1.264068		1.902734		0.692799		32.414191		5.035492		
0.081949		-0.000000		0.000000		0.000000		0.107751		0.000000		0.289496		0.000000		0.000000		-0.000000		0.000000		0.000000		0.000000		-0.189234		0.000000		0.278759		0.000000		-0.000000		0.000000		-28.491729		587.804438		110.652589		0.353052		1.253954		1.891761		1.297961		-26.777860		-5.040860		14.113916		605.620590		91.562628		-0.290166		1.264068		1.902766		0.753067		32.313691		4.885445		
0.085687		-0.000000		0.000000		0.000000		0.107751		0.000000		0.289496		0.000000		0.000000		-0.000000		0.000000		0.000000		0.000000		-0.189234		0.000000		0.278759		0.000000		-0.000000		-0.000000		-28.722640		588.492731		110.270347		0.353168		1.253951		1.891725		1.309079		-26.821459		-5.025740		15.219544		601.977212		88.456156		-0.290131		1.264065		1.902796		0.813388		32.171839		4.727416		
0.089424		-0.000000		-0.000000		-0.000000		0.107751		0.000000		0.289496		-0.000000		0.000000		0.000000		0.000000		-0.000000		0.000000		-0.189234		0.000000		0.278759		-0.000000		-0.000000		-0.000000		-28.930962		589.119425		109.737572		0.353291		1.253939		1.891672		1.319484		-26.868576		-5.004914		16.307805		597.855440		85.449564		-0.290081		1.264057		1.902820		0.872873		32.000138		4.573677		
0.093162		0.000000		-0.000000		-0.000000		0.107751		0.000000		0.289496		-0.000000		-0.000000		0.000000		-0.000000		-0.000000		-0.000000		-0.189234		0.000000		0.278759		-0.000000		0.000000		-0.000000		-29.126503		589.490169		109.110559		0.353358		1.253931		1.891660		1.329839		-26.914563		-4.981699		17.377746		593.393851		82.708899		-0.290023		1.264045		1.902834		0.931564		31.809854		4.433746		
0.096899		0.000000		-0.000000		-0.000000		0.107751		0.000000		0.289496		-0.000000		-0.000000		0.000000		-0.000000		-0.000000		-0.000000		-0.189234		0.000000		0.278759		-0.000000		0.000000		-0.000000		-29.293347		589.505880		108.519322		0.353318		1.253943		1.891741		1.339580		-26.957998		-4.962569		18.419020		588.671874		80.292041		-0.289966		1.264029		1.902841		0.989003		31.608517		4.311251		
0.100636		0.000000		-0.000000		-0.000000		0.107751		0.000000		0.289496		-0.000000		-0.000000		0.000000		-0.000000		-0.000000		-0.000000		-0.189234		0.000000		0.278759		-0.000000		0.000000		-0.000000		-29.383735		589.181675		108.010364		0.353154		1.253988		1.891944		1.346535		-26.999751		-4.949667		19.393828		583.726063		78.158731		-0.289922		1.264013		1.902845		1.043155		31.397432		4.203998		
0.104374		0.000000		0.000000		-0.000000		0.107751		0.000000		0.289496		0.000000		-0.000000		-0.000000		-0.000000		0.000000		-0.000000		-0.189234		0.000000		0.278759		-0.000000		0.000000		0.000000		-29.327896		588.626856		107.390852		0.352904		1.254065		1.892242		1.347329		-27.041633		-4.933557		20.245699		578.596421		76.193056		-0.289897		1.263997		1.902853		1.090781		31.173129		4.105064		
0.108111		0.000000		0.000000		0.000000		0.107751		0.000000		0.289496		0.000000		0.000000		-0.000000		0.000000		0.000000		0.000000		-0.189234		0.000000		0.278759		0.000000		-0.000000		0.000000		-29.054973		587.985067		106.242867		0.352656		1.254156		1.892561		1.338415		-27.085486		-4.894069		20.908498		573.359233		74.256775		-0.289890		1.263982		1.902869		1.127962		30.931336		4.005973		
